PathFileType	4	(X/Y/Z)	s09c0001.trc
DataRate	CameraRate	NumFrames	NumMarkers	Units	OrigDataRate	OrigDataStartFrame	OrigNumFrames
200	200	4	49	mm	200	500	2000
Frame#	Time	racr			lacr			c7			jug			rlel			rdr			llel			ldr			s2			lic			ric			lasi			rasi			rpsi			lpsi			rgt			lgt			rth1			rth2			rth3			rth4			rlfc			rmfc			rsh1			rsh2			rsh3			rsh4			rlmal			rmmal			rcal			rtoe			rmt5			rmt1			lth1			lth2			lth4			lth3			llfc			lmfc			llmal			lmmal			lcal			lmt1			lmt5			lsh1			lsh2			lsh3			lsh4			ltoe			
		X1	Y1	Z1	X2	Y2	Z2	X3	Y3	Z3	X4	Y4	Z4	X5	Y5	Z5	X6	Y6	Z6	X7	Y7	Z7	X8	Y8	Z8	X9	Y9	Z9	X10	Y10	Z10	X11	Y11	Z11	X12	Y12	Z12	X13	Y13	Z13	X14	Y14	Z14	X15	Y15	Z15	X16	Y16	Z16	X17	Y17	Z17	X18	Y18	Z18	X19	Y19	Z19	X20	Y20	Z20	X21	Y21	Z21	X22	Y22	Z22	X23	Y23	Z23	X24	Y24	Z24	X25	Y25	Z25	X26	Y26	Z26	X27	Y27	Z27	X28	Y28	Z28	X29	Y29	Z29	X30	Y30	Z30	X31	Y31	Z31	X32	Y32	Z32	X33	Y33	Z33	X34	Y34	Z34	X35	Y35	Z35	X36	Y36	Z36	X37	Y37	Z37	X38	Y38	Z38	X39	Y39	Z39	X40	Y40	Z40	X41	Y41	Z41	X42	Y42	Z42	X43	Y43	Z43	X44	Y44	Z44	X45	Y45	Z45	X46	Y46	Z46	X47	Y47	Z47	X48	Y48	Z48	X49	Y49	Z49	
500	2.5000	280.671814	1352.707031	380.992706	283.554169	1335.414551	-11.460751	230.081421	1402.246216	181.385315	353.351715	1350.782593	180.815460	294.471375	1092.348511	447.229309	357.526123	878.148254	577.577698	271.673615	1051.187012	-45.662197	395.530151	894.921021	-193.355820	216.318268	943.191650	188.927917	351.486694	990.609009	47.777233	339.098206	1002.499084	337.918518	408.437866	954.731995	78.888252	399.133453	966.041687	319.102570	224.723404	978.461426	243.894501	225.122208	974.673889	133.302765	325.232605	846.850830	385.894012	329.938782	836.737793	10.671227	348.439941	716.341431	381.732147	364.073273	630.829102	368.219452	332.133240	548.391602	358.630951	394.668457	629.389038	348.421082	318.744507	451.000580	334.939026	301.535614	431.034271	236.935638	277.984680	361.165131	368.074463	302.140808	274.069885	359.686371	279.141602	189.311142	361.262939	327.869446	276.970642	329.691223	276.779602	86.723206	360.349670	286.129822	93.481895	283.805603	219.168167	32.034107	318.061798	471.934753	86.069588	354.346313	388.187286	49.251461	407.095886	401.015808	39.265221	297.157501	340.353851	710.619568	9.211077	355.287445	628.890564	26.123941	391.077911	626.872620	40.011688	326.708710	543.716248	34.856030	308.830048	449.080261	47.165749	317.652496	429.006256	140.190674	268.646606	84.937119	21.754707	291.184540	96.175621	92.475533	218.706329	26.704084	68.081596	406.287231	43.983360	87.241158	381.463318	33.853687	-18.407652	278.004303	355.145782	17.620024	295.964569	270.405426	21.457035	274.493591	198.345657	14.850786	323.011993	270.782623	50.551674	472.545654	79.205025	36.476955	
501	2.5050	280.685303	1352.707886	380.997406	283.559723	1335.409912	-11.456995	230.096664	1402.249390	181.395950	353.362762	1350.763184	180.812241	294.503632	1092.352417	447.224365	357.568115	878.199646	577.550537	271.673920	1051.191162	-45.642357	395.548859	894.904480	-193.340179	216.316696	943.207275	188.927582	351.490570	990.616089	47.770435	339.106049	1002.510864	337.913757	408.420563	954.736633	78.860619	399.144806	966.044189	319.113861	224.748306	978.465454	243.896393	225.139999	974.685303	133.313553	325.243378	846.848450	385.884827	329.947327	836.730225	10.679200	348.451874	716.343140	381.726776	364.074615	630.820068	368.209717	332.145416	548.385254	358.622833	394.682648	629.398132	348.444305	318.747498	451.010406	334.937805	301.520172	431.054443	236.928955	277.986542	361.163269	368.076324	302.136078	274.078003	359.685425	279.149384	189.301193	361.258148	327.824860	276.956512	329.680634	276.771301	86.742203	360.357727	286.122742	93.504417	283.811066	219.184875	32.036617	318.048676	471.848267	86.270378	354.450134	388.212067	49.255852	407.115448	401.023346	39.261974	297.155945	340.338654	710.627075	9.212384	355.275085	628.908569	26.110622	391.071167	626.864990	40.000122	326.696442	543.711365	34.832314	308.798401	449.071167	47.158154	317.643921	428.997131	140.170425	268.665710	84.949295	21.763323	291.201660	96.165276	92.467537	218.684616	26.720766	68.093903	406.293457	43.966537	87.246811	381.463318	33.853695	-18.407667	278.001282	355.154449	17.608284	295.950439	270.403748	21.427137	274.468750	198.350754	14.801034	322.996643	270.768433	50.525700	472.557343	79.197968	36.459682	
502	2.5100	280.711578	1352.712158	380.997040	283.581421	1335.409912	-11.451725	230.123474	1402.247803	181.398422	353.386658	1350.768433	180.811203	294.511719	1092.352661	447.221863	357.559357	878.200073	577.548279	271.671967	1051.187622	-45.633968	395.546753	894.887634	-193.309326	216.319061	943.193848	188.927795	351.486176	990.622498	47.763134	339.106018	1002.510925	337.913757	408.422668	954.737244	78.865822	399.143707	966.049805	319.114502	224.736786	978.459900	243.899933	225.149887	974.686707	133.304489	325.252014	846.843506	385.877655	329.922241	836.737732	10.685570	348.455841	716.331848	381.727478	364.082886	630.825500	368.222168	332.143951	548.383362	358.631958	394.669617	629.364319	348.417877	318.735657	451.012726	334.925903	301.517181	431.037872	236.923035	277.986877	361.163391	368.076263	302.140076	274.098114	359.683746	279.155609	189.299301	361.265167	327.835724	276.917816	329.679169	276.768127	86.741364	360.357239	286.124634	93.501366	283.814240	219.146729	32.048237	318.061768	471.928650	86.071571	354.324921	388.176666	49.248032	407.092865	401.013672	39.271477	297.151154	340.333557	710.626221	9.197154	355.266083	628.892883	26.110786	391.089386	626.861145	40.028294	326.696564	543.724182	34.817314	308.798218	449.095825	47.154770	317.641846	428.991669	140.178970	268.644623	84.945808	21.768957	291.188141	96.167633	92.474953	218.699738	26.712608	68.092453	406.286438	43.978054	87.243324	381.436920	33.873844	-18.405867	277.986572	355.151520	17.601837	295.947601	270.402161	21.434965	274.467194	198.351746	14.862462	323.014282	270.806091	50.499252	472.543518	79.203827	36.476418	
503	2.5150	280.731598	1352.719971	380.993530	283.601532	1335.403442	-11.451264	230.136902	1402.253418	181.387848	353.414948	1350.757324	180.809296	294.536987	1092.350708	447.205261	357.531586	878.135742	577.553650	271.695862	1051.176025	-45.614643	395.550598	894.866516	-193.285339	216.370972	943.235535	188.940674	351.507904	990.616760	47.785461	339.127716	1002.509460	337.923981	408.431274	954.727966	78.876236	399.159363	966.045471	319.117035	224.750992	978.471558	243.902298	225.158554	974.684448	133.319458	325.260010	846.856140	385.900513	329.912720	836.733887	10.662391	348.446106	716.354248	381.738953	364.080902	630.831482	368.223083	332.158264	548.380859	358.634064	394.673370	629.371277	348.435303	318.744965	450.991455	334.945038	301.499786	431.035583	236.946106	277.971619	361.173737	368.091278	302.140808	274.075531	359.680634	279.132690	189.318146	361.270630	327.835785	276.940186	329.689636	276.789642	86.726456	360.348785	286.154205	93.476006	283.812683	219.179489	32.014927	318.056885	471.938171	86.069275	354.339386	388.178894	49.241505	407.096985	401.015869	39.269630	297.152008	340.327606	710.637390	9.199153	355.275604	628.904602	26.121834	391.078949	626.864990	39.986332	326.682037	543.719666	34.839867	308.795135	449.084229	47.166702	317.636749	429.005646	140.173645	268.644714	84.940796	21.758986	291.187805	96.168701	92.478302	218.697388	26.717108	68.095909	406.294647	43.974781	87.251709	381.427643	33.877884	-18.397261	278.001831	355.150299	17.610950	295.950775	270.388000	21.421001	274.493835	198.342896	14.815187	323.016357	270.781525	50.548771	472.543304	79.203262	36.477077	
